<svg xmlns="http://www.w3.org/2000/svg" version="1.1" xmlns:xlink="http://www.w3.org/1999/xlink" xmlns:svgjs="http://svgjs.dev/svgjs" width="120" height="121.44" viewBox="0 0 2000 2024"><g transform="matrix(1,0,0,1,1.767868852458946,0.8194331983804659)"><svg viewBox="0 0 244 247" data-background-color="#ffffff" preserveAspectRatio="xMidYMid meet" height="2024" width="2000" xmlns="http://www.w3.org/2000/svg" xmlns:xlink="http://www.w3.org/1999/xlink"><g id="tight-bounds" transform="matrix(1,0,0,1,-0.21567999999999188,-0.09999999999999432)"><svg viewBox="0 0 244.43135999999998 247.2" height="247.2" width="244.43135999999998"><g><svg></svg></g><g><svg viewBox="0 0 244.43135999999998 247.2" height="247.2" width="244.43135999999998"><g transform="matrix(1,0,0,1,0,49.98470736842104)"><svg viewBox="0 0 244.43135999999998 147.2305852631579" height="147.2305852631579" width="244.43135999999998"><g><svg viewBox="0 0 244.43135999999998 147.2305852631579" height="147.2305852631579" width="244.43135999999998"><g><svg viewBox="0 0 244.43135999999998 147.2305852631579" height="147.2305852631579" width="244.43135999999998"><g id="textblocktransform"><svg viewBox="0 0 244.43135999999998 147.2305852631579" height="147.2305852631579" width="244.43135999999998" id="textblock"><g><svg viewBox="0 0 244.43135999999998 147.2305852631579" height="147.2305852631579" width="244.43135999999998"><g transform="matrix(1,0,0,1,0,0)"><svg width="244.43135999999998" viewBox="2.55 -35.55 59.85 36.05" height="147.2305852631579" data-palette-color="#000000"><path d="M16.25-0.55L16.25-0.55Q18.75-0.55 20.68-1.9 22.6-3.25 22.6-5.98 22.6-8.7 20.53-10.15 18.45-11.6 14.63-12.68 10.8-13.75 9.08-14.55 7.35-15.35 5.8-16.65L5.8-16.65Q2.7-19.25 2.7-24.7L2.7-24.7Q2.7-29.15 5.88-32.35 9.05-35.55 14.55-35.55L14.55-35.55Q17.2-35.55 20.08-34.77 22.95-34 23.65-34 24.35-34 24.9-35L24.9-35 25.45-35 25.8-24.9 25-24.9Q22.6-29.25 19.98-31.88 17.35-34.5 14.28-34.5 11.2-34.5 9.5-33.08 7.8-31.65 7.8-29.28 7.8-26.9 9.83-25.63 11.85-24.35 14.8-23.55 17.75-22.75 18.68-22.45 19.6-22.15 20.98-21.63 22.35-21.1 23.23-20.53 24.1-19.95 25.08-19.07 26.05-18.2 26.6-17.15L26.6-17.15Q27.95-14.75 27.95-11.45L27.95-11.45Q27.95-6.05 24.58-2.78 21.2 0.5 15.7 0.5L15.7 0.5Q12.85 0.5 9.18-0.25 5.5-1 5.1-1L5.1-1Q4.4-1 3.75 0.5L3.75 0.5 3.05 0.5 2.55-11.4 3.4-11.4Q5.6-7.05 9.03-3.8 12.45-0.55 16.25-0.55ZM46.05-0.95L49.6-0.95 45.95-11.75 36.05-11.75 32.2-0.95 35.95-0.95 35.95 0 28.3 0 28.3-0.95 30.65-0.95 43.4-35.3 47.5-35.3 60.1-0.95 62.4-0.95 62.4 0 46.05 0 46.05-0.95ZM45.55-12.85L41.2-25.95 36.5-12.85 45.55-12.85Z" opacity="1" transform="matrix(1,0,0,1,0,0)" fill="#ffffff" class="wordmark-text-0" data-fill-palette-color="primary" id="text-0"></path></svg></g></svg></g></svg></g></svg></g><g></g></svg></g></svg></g><path d="M0 43.985L0 1 244.431 1 244.431 43.985 231.154 43.985 231.154 14.277 13.277 14.277 13.277 43.985 0 43.985M0 203.215L0 246.2 244.431 246.2 244.431 203.215 231.154 203.215 231.154 232.923 13.277 232.923 13.277 203.215 0 203.215" fill="#ffffff" stroke="transparent" data-fill-palette-color="tertiary"></path></svg></g><defs></defs></svg><rect width="244.43135999999998" height="247.2" fill="none" stroke="none" visibility="hidden"></rect></g></svg></g></svg>